PathFileType	4	(X/Y/Z)	C:\Users\Basilio\Documents\Thesis Gigler\squatting_fais\c3dfiles\047\SLS_pre_back1\markers_experimental.trc
DataRate	CameraRate	NumFrames	NumMarkers	Units	OrigDataRate	OrigDataStartFrame	OrigNumFrames
200.000000	200.000000	4	60	mm	200.000000	157	1260
Frame#	Time	FHD			LBHD			RBHD			C7			T10			CLAV			LSHO			LUUPA			LMUPA			LDUPA			LLEP			LMEP			LRAD			LUL			LRFIN			RSHO			RUPA1			RMUPA			RDUPA			RLEP			RMEP			RUL			RUFIN			LASI			RASI			USACR			LSACR			RSACR			LTHI1			LTHI2			LTHI3			LTHI4			LLFC			LMFC			LTIB1			LTIB2			LTIB3			LTIB4			LLMAL			LMMAL			LMT1			LMT2			LMT5			RTHI			RTHI2			RTHI3			RTHI4			RLFC			RMFC			RTIB1			RTIB2			RTIB3			RTIB4			RLMAL			RHEE			RMT1			RMT2			RMT5			RMMAL			*59			
		X1	Y1	Z1	X2	Y2	Z2	X3	Y3	Z3	X4	Y4	Z4	X5	Y5	Z5	X6	Y6	Z6	X7	Y7	Z7	X8	Y8	Z8	X9	Y9	Z9	X10	Y10	Z10	X11	Y11	Z11	X12	Y12	Z12	X13	Y13	Z13	X14	Y14	Z14	X15	Y15	Z15	X16	Y16	Z16	X17	Y17	Z17	X18	Y18	Z18	X19	Y19	Z19	X20	Y20	Z20	X21	Y21	Z21	X22	Y22	Z22	X23	Y23	Z23	X24	Y24	Z24	X25	Y25	Z25	X26	Y26	Z26	X27	Y27	Z27	X28	Y28	Z28	X29	Y29	Z29	X30	Y30	Z30	X31	Y31	Z31	X32	Y32	Z32	X33	Y33	Z33	X34	Y34	Z34	X35	Y35	Z35	X36	Y36	Z36	X37	Y37	Z37	X38	Y38	Z38	X39	Y39	Z39	X40	Y40	Z40	X41	Y41	Z41	X42	Y42	Z42	X43	Y43	Z43	X44	Y44	Z44	X45	Y45	Z45	X46	Y46	Z46	X47	Y47	Z47	X48	Y48	Z48	X49	Y49	Z49	X50	Y50	Z50	X51	Y51	Z51	X52	Y52	Z52	X53	Y53	Z53	X54	Y54	Z54	X55	Y55	Z55	X56	Y56	Z56	X57	Y57	Z57	X58	Y58	Z58	X59	Y59	Z59	X60	Y60	Z60	

158	0.785	-125.0943603515625	1728.1904296875	-1082.237426757813	-302.6200256347657	1703.2158203125	-1117.10888671875	-286.4554443359376	1702.145263671875	-969.3688964843752	-340.7625427246094	1526.001098632813	-1051.518676757813	-376.2297668457032	1213.703857421875	-1029.775024414063	-198.2915039062501	1452.549926757813	-1073.826171875	-267.1601562500001	1473.34228515625	-1230.338989257813	-211.8291625976563	1310.684204101563	-1319.809936523438	-164.697982788086	1331.382080078125	-1317.908203125	-152.8900604248047	1273.31298828125	-1327.513427734375	-82.94345855712892	1251.328247070313	-1328.82666015625	-106.1100311279297	1204.88818359375	-1253.344848632813	87.83572387695314	1343.794311523438	-1159.928344726563	117.0252838134766	1274.278076171875	-1154.038940429688	177.6201171875	1346.203979492188	-1143.356201171875	-232.0164337158204	1484.354614257813	-911.4935302734377	-150.2189483642578	1333.566040039063	-811.0765380859377	-108.6654281616211	1351.171630859375	-830.2866210937502	-90.7827835083008	1296.41796875	-812.6540527343752	-18.87394523620606	1275.637939453125	-828.4599609375002	-53.45349502563478	1211.69580078125	-880.7385864257815	156.9865264892578	1287.9755859375	-1023.201721191406	139.9344482421875	1367.673950195313	-1065.57470703125	-204.5718688964844	982.2927856445315	-1109.68212890625	-209.3103179931641	1002.13037109375	-878.5574951171877	-385.7864379882814	1079.34228515625	-1009.988525390625	-389.0558166503907	1045.28271484375	-1035.454711914063	-390.3441162109376	1051.239990234375	-977.058532714844	-286.6927795410157	826.9751586914065	-1176.423706054688	-250.7716827392579	750.8099975585939	-1170.627197265625	-203.2901458740235	756.0385742187501	-1156.154541015625	-279.2716064453126	696.8199462890626	-1163.366088867188	-300.4184570312501	526.5821533203126	-1119.733764648438	-269.5557861328126	525.1897583007814	-1000.69580078125	-281.4897766113282	343.4100341796876	-1018.668151855469	-289.1460571289063	294.8722229003907	-1091.016967773438	-275.2133483886719	293.0764770507813	-1045.208618164063	-295.9668579101563	218.2902374267579	-1012.281005859375	-350.3222351074219	125.9482955932617	-1056.748901367188	-330.5280761718751	138.1149291992188	-968.8538818359377	-209.5003204345704	63.50905227661134	-989.3443603515627	-209.3250732421876	63.58053207397462	-1034.689453125	-258.5149536132813	52.99560165405275	-1077.894287109375	-286.4987182617188	831.5667114257815	-774.4483642578127	-241.1114349365235	784.7329711914065	-759.4417724609376	-209.8250427246094	787.810241699219	-768.3107910156252	-256.8218078613282	702.3397827148439	-749.0109252929689	-238.4578552246094	570.4404907226564	-751.3984985351564	-213.4194335937501	531.7502441406251	-873.9036865234377	-326.1147155761719	484.5223083496095	-763.8829956054689	-425.8385009765626	529.5413208007814	-751.4976196289064	-411.759246826172	484.909393310547	-750.8407592773439	-450.8111267089845	452.8607177734376	-784.164245605469	-615.3018798828126	478.9720153808595	-785.4306640625002	-630.9010620117189	516.7400512695314	-856.6566162109377	-656.7746582031251	310.8451232910157	-826.538024902344	-665.0344238281251	316.4496459960938	-785.579284667969	-702.3748779296876	376.1871337890626	-751.0992431640626	-580.1083984375001	432.8312377929689	-857.613220214844	nan	nan	nan	
159	0.79	-124.9741744995117	1728.268676757813	-1082.1220703125	-302.5791015625001	1703.217041015625	-1116.850830078125	-286.3940429687501	1702.1162109375	-969.0830688476565	-340.7485351562501	1526.027099609375	-1051.396850585938	-376.2773742675782	1213.779663085938	-1029.849975585938	-198.2955322265626	1452.535888671875	-1073.649047851563	-267.1573486328126	1473.478881835938	-1230.233520507813	-211.8364257812501	1310.83447265625	-1319.80322265625	-164.6152648925782	1331.601318359375	-1317.9345703125	-152.79931640625	1273.49072265625	-1327.50537109375	-82.90065002441408	1251.557250976563	-1328.814086914063	-106.1942825317383	1205.057006835938	-1253.444946289063	87.88652801513673	1343.851928710938	-1159.86376953125	117.5641632080078	1274.10693359375	-1154.119750976563	177.5456848144532	1346.168334960938	-1143.274658203125	-231.9120483398438	1484.30078125	-911.420104980469	-150.2103118896485	1333.488891601563	-811.0341796875002	-108.6339569091797	1351.092651367188	-830.272644042969	-90.70861816406251	1296.286865234375	-812.6710205078127	-18.874906539917	1275.529541015625	-828.4050903320315	-53.40789794921876	1211.59326171875	-880.7767333984377	156.9323425292969	1287.90478515625	-1022.934936523438	140.184066772461	1367.668823242188	-1065.564331054688	-204.2241973876954	982.3803710937502	-1109.8642578125	-209.2781219482422	1002.14697265625	-878.5562744140627	-385.6942749023439	1079.292114257813	-1010.096618652344	-388.9201965332032	1045.209106445313	-1035.566162109375	-390.2131652832032	1051.220092773438	-977.1712646484377	-286.5830993652344	826.9633789062502	-1176.443237304688	-250.6344299316407	750.7784423828126	-1170.606201171875	-203.0960845947266	756.0050659179689	-1156.15087890625	-279.0521545410157	696.8139648437501	-1163.3544921875	-300.2106018066407	526.5611572265626	-1119.734497070313	-269.4483947753907	525.1938476562501	-1000.694519042969	-281.4926757812501	343.3791198730469	-1018.692932128906	-288.9597473144532	294.9506530761719	-1091.018432617188	-275.2065124511719	293.0193786621094	-1045.114135742188	-295.9487609863282	218.2707061767579	-1012.176391601563	-350.3070678710938	125.9387130737305	-1056.760009765625	-330.5939941406251	138.0385284423828	-968.773376464844	-209.3887481689454	63.54900360107423	-989.1979980468752	-209.3079833984376	63.67712402343751	-1034.700805664063	-258.5572509765626	53.01219177246095	-1077.845092773438	-286.3835449218751	831.5305786132815	-774.5441894531252	-241.0380401611329	784.6685791015627	-759.6210937500001	-209.7654113769532	787.7786865234377	-768.578552246094	-256.5959472656251	702.2842407226564	-749.1994018554689	-238.2894439697266	570.3699340820314	-751.4835205078126	-213.2810821533204	531.7427978515626	-874.0015258789065	-325.7745361328126	484.3408813476564	-764.0895996093751	-425.7051391601564	529.5170898437501	-751.6141967773439	-411.6542358398439	484.8499145507814	-750.9581909179689	-450.5500488281251	452.8287963867189	-784.4587402343752	-615.1427001953126	478.8822326660157	-785.5637207031252	-630.7550659179689	516.6638793945314	-856.8369750976565	-656.7715454101564	310.5811767578126	-826.5864257812502	-665.0701293945314	316.4573669433594	-785.8204345703127	-702.2196044921876	376.1582031250001	-751.2344970703126	-579.9240112304689	432.8796691894532	-857.8457641601565	nan	nan	nan	
160	0.795	-125.0322494506836	1728.1484375	-1081.57373046875	-302.6188659667969	1703.26220703125	-1116.59326171875	-286.5073547363282	1701.91845703125	-968.9377441406252	-340.7290954589844	1526.0634765625	-1051.245849609375	-376.1309509277344	1213.70849609375	-1029.930541992188	-198.2931213378907	1452.615844726563	-1073.607421875	-267.1270141601563	1473.646606445313	-1230.128540039063	-211.7065887451172	1310.999145507813	-1319.837890625	-164.5814666748047	1331.798217773438	-1318.01513671875	-152.8089752197266	1273.717407226563	-1327.565551757813	-82.91439056396486	1251.701416015625	-1328.803344726563	-106.2747421264649	1205.16650390625	-1253.458740234375	87.92562103271486	1343.923950195313	-1159.808959960938	117.591667175293	1274.15771484375	-1154.073974609375	177.5830230712891	1346.189208984375	-1143.251342773438	-231.7926483154297	1484.184204101563	-911.2719726562502	-150.1728668212891	1333.391235351563	-810.8840942382815	-108.6451568603516	1350.989624023438	-830.2039794921877	-90.69148254394533	1296.2041015625	-812.559509277344	-18.73136901855469	1275.524291992188	-828.4973144531252	-53.35441970825197	1211.57958984375	-880.737487792969	156.9399566650391	1287.901245117188	-1022.914794921875	140.1289978027344	1367.645385742188	-1065.398071289063	-204.050277709961	982.338073730469	-1109.993896484375	-209.2659149169922	1002.131530761719	-878.596374511719	-385.6595764160157	1079.228637695313	-1010.176086425781	-388.9108276367189	1045.195922851563	-1035.646362304688	-390.1614074707032	1051.186889648438	-977.2471313476565	-286.4469604492188	826.911071777344	-1176.506469726563	-250.4014129638672	750.7353515625001	-1170.647216796875	-203.0444946289063	756.0793457031251	-1156.148071289063	-278.8793334960938	696.7508544921876	-1163.31005859375	-300.0726623535157	526.5061645507814	-1119.711303710938	-269.5177917480469	525.1795654296876	-1000.680786132813	-281.5326843261719	343.3034362792969	-1018.304260253906	-288.9247436523438	294.7306518554688	-1090.865356445313	-275.1570434570313	292.9579772949219	-1044.99951171875	-295.9071044921876	218.2727966308594	-1012.137084960938	-350.2748718261719	125.9470977783203	-1056.756225585938	-330.6439819335938	138.0096435546875	-968.6955566406252	-211.8534088134766	63.22747039794923	-988.4863281250002	-209.3079223632813	63.67430114746095	-1034.68115234375	-258.4758300781251	53.03812408447267	-1077.828369140625	-286.2999572753907	831.493835449219	-774.5629882812502	-240.9169616699219	784.5955200195315	-759.8153076171876	-209.7983856201172	787.7632446289065	-768.419128417969	-256.4678649902344	702.2261352539064	-749.3379516601564	-237.9706420898438	570.3161010742189	-751.6495971679689	-213.1659088134766	531.7479248046876	-874.1123657226565	-325.6803283691407	484.2884826660157	-763.8768310546876	-425.6343383789064	529.3872070312501	-751.6491088867189	-411.391571044922	484.7645568847657	-751.2426147460939	-450.3852844238282	452.8123168945314	-784.774108886719	-615.0321044921876	478.754852294922	-785.7182617187502	-630.4984741210939	516.5580444335939	-857.132263183594	-656.5469360351564	310.2608032226563	-826.6690063476565	-664.8508911132814	316.1860351562501	-786.1501464843752	-702.0776367187501	376.0763244628907	-751.4511718750001	-579.6878051757814	432.9749145507814	-858.214294433594	nan	nan	nan	
161	0.8	-124.8429412841797	1728.288940429688	-1081.545654296875	-302.5075378417969	1703.307250976563	-1116.360229492188	-286.5261535644532	1701.851684570313	-968.7530517578127	-340.8501281738282	1526.094482421875	-1051.059448242188	-376.1099853515626	1213.76318359375	-1029.96142578125	-198.3054504394532	1452.637451171875	-1073.602783203125	-267.2648620605469	1473.705444335938	-1229.935180664063	-211.7922821044922	1311.138793945313	-1319.835083007813	-164.5381011962891	1331.953125	-1318.009521484375	-152.7203369140625	1273.890991210938	-1327.584594726563	-82.94561004638673	1251.904052734375	-1328.818115234375	-106.2900390625	1205.24462890625	-1253.611450195313	87.91880035400392	1344.012817382813	-1159.834228515625	117.6120071411133	1274.224975585938	-1154.082763671875	177.6345520019532	1346.277099609375	-1143.174438476563	-232.0208892822266	1484.091796875	-911.1179809570315	-150.1222381591797	1333.326049804688	-810.9734497070315	-108.6330718994141	1350.928100585938	-830.2173461914065	-90.63545227050783	1296.115234375	-812.5609130859377	-18.76400375366211	1275.364990234375	-828.3984375000002	-53.37068176269533	1211.494018554688	-880.6939086914065	156.9453887939453	1287.902587890625	-1022.889099121094	140.1732635498047	1367.677490234375	-1065.351196289063	-204.1267700195313	982.3004150390627	-1109.869873046875	-209.2567291259766	1002.152587890625	-878.631774902344	-385.6118164062501	1079.181274414063	-1010.280212402344	-389.266571044922	1045.2060546875	-1035.779541015625	-390.1526184082032	1051.136840820313	-977.3687133789065	-286.2089233398438	826.8708496093752	-1176.541381835938	-250.2735137939454	750.7098999023439	-1170.615478515625	-202.9003143310547	756.0638427734376	-1156.232543945313	-278.7058105468751	696.7724609375001	-1163.339965820313	-299.9300537109376	526.5295410156251	-1119.719970703125	-269.4980163574219	525.1860351562501	-1000.673034667969	-281.4151611328126	343.4259033203126	-1018.482421875	-288.7899169921876	294.7210693359376	-1090.859252929688	-275.0928039550782	293.0510253906251	-1044.997192382813	-295.9061279296876	218.3110046386719	-1012.027648925781	-350.1952819824219	125.9176483154297	-1056.695922851563	-330.6987915039063	137.9838104248047	-968.6281738281252	-211.8748016357422	63.2573699951172	-988.5340576171877	-209.398422241211	63.68386459350587	-1034.627197265625	-258.5485839843751	53.10816955566408	-1077.789306640625	-286.2214660644532	831.4307250976565	-774.6538696289065	-240.7259826660157	784.580993652344	-760.1380004882814	-209.5549621582032	787.7314453125002	-768.6511230468752	-256.3531494140626	702.2071533203126	-749.4492187500001	-237.8116302490235	570.2777709960939	-751.9011840820314	-212.9199523925782	531.7982177734376	-874.2772216796877	-325.4899902343751	484.1115112304689	-763.8438720703126	-425.3565063476564	529.2727661132814	-751.9268188476564	-411.2234497070314	484.6431884765626	-751.3468017578126	-450.2330322265626	452.7961730957032	-784.9726562500002	-614.7683105468751	478.6416320800782	-786.0203247070315	-630.3210449218751	516.4854736328126	-857.366149902344	-656.1492919921876	310.2270202636719	-826.7619628906252	-664.8075561523439	316.0818481445313	-786.4716796875002	-701.7698364257814	376.0356140136719	-751.6900024414064	-579.4039306640626	432.800750732422	-858.4617309570315	nan	nan	nan	
